<svg aria-hidden="true" style="position: absolute; width: 0; height: 0; overflow: hidden;" version="1.1" xmlns="http://www.w3.org/2000/svg" xmlns:xlink="http://www.w3.org/1999/xlink">
<defs>
<symbol id="arrow-icon" viewBox="0 0 32 32">
<path d="M16.154 2.406c-0.001 0-0.001 0-0.002 0-0.531 0-0.962 0.431-0.962 0.962 0 0.001 0 0.001 0 0.002v-0 22.709l-6.057-6.061c-0.173-0.169-0.41-0.272-0.671-0.272-0.532 0-0.964 0.431-0.964 0.964 0 0.261 0.104 0.498 0.273 0.672l7.702 7.702c0.174 0.175 0.415 0.284 0.681 0.284s0.507-0.108 0.681-0.284l7.703-7.701c0.179-0.174 0.29-0.418 0.29-0.687 0-0.53-0.43-0.96-0.96-0.96-0.004 0-0.008 0-0.012 0h0.001c-0 0-0.001 0-0.002 0-0.266 0-0.507 0.108-0.682 0.282l-6.057 6.061v-22.709c0-0.001 0-0.001 0-0.002 0-0.531-0.431-0.962-0.962-0.962 0 0 0 0 0 0v0z"></path>
</symbol>
<symbol id="attach-icon" viewBox="0 0 32 32">
<path d="M5.728 30.545c-1.354 0-2.556-0.509-3.607-1.524-1.111-1.076-1.665-2.381-1.665-3.916s0.554-2.839 1.665-3.914l17.425-17.889c0.815-0.828 1.861-1.428 3.033-1.694l0.041-0.008c0.419-0.094 0.9-0.149 1.393-0.149 0.765 0 1.5 0.13 2.183 0.369l-0.046-0.014c1.193 0.391 2.294 1.065 3.303 2.023 0.32 0.33 0.614 0.689 0.877 1.072l0.018 0.028c0.272 0.401 0.495 0.822 0.666 1.261 0.335 0.848 0.53 1.831 0.531 2.859v0.001c-0.041 2.073-0.768 3.802-2.182 5.19l-13.183 13.549c-0.165 0.184-0.401 0.301-0.665 0.308l-0.001 0c-0.015 0.001-0.033 0.001-0.051 0.001-0.245 0-0.468-0.096-0.633-0.252l0 0c-0.181-0.163-0.296-0.397-0.301-0.658v-0.001c-0.001-0.014-0.001-0.031-0.001-0.048 0-0.249 0.099-0.475 0.259-0.641l-0 0 13.181-13.549c1.071-1.056 1.616-2.365 1.636-3.929 0.020-1.565-0.495-2.845-1.545-3.843-0.601-0.609-1.315-1.103-2.109-1.449l-0.044-0.017c-0.549-0.234-1.187-0.371-1.858-0.371-0.243 0-0.481 0.018-0.714 0.052l0.026-0.003c-0.909 0.116-1.716 0.518-2.423 1.201l-17.425 17.889c-0.746 0.723-1.12 1.593-1.12 2.609s0.374 1.887 1.12 2.609c0.345 0.333 0.719 0.582 1.123 0.748 0.403 0.167 0.828 0.23 1.271 0.191 0.89-0.038 1.718-0.439 2.486-1.201l13.847-14.252c0.212-0.205 0.402-0.431 0.566-0.675l0.010-0.015c0.186-0.274 0.316-0.602 0.362-0.956l0.001-0.011c0.003-0.030 0.005-0.065 0.005-0.1 0-0.15-0.035-0.293-0.098-0.419l0.002 0.005c-0.093-0.194-0.215-0.359-0.363-0.498l-0.001-0.001c-0.384-0.391-0.756-0.567-1.12-0.528-0.385 0.039-0.819 0.284-1.305 0.733l-10.423 10.733c-0.116 0.113-0.259 0.198-0.417 0.247l-0.007 0.002c-0.084 0.027-0.181 0.042-0.281 0.042-0.255 0-0.487-0.099-0.659-0.261l0.001 0c-0.185-0.152-0.303-0.382-0.303-0.638 0-0.003 0-0.005 0-0.008v0c0-0.255 0.090-0.48 0.272-0.675l10.425-10.764c0.829-0.781 1.667-1.212 2.516-1.289 0.969-0.079 1.857 0.273 2.665 1.055 0.768 0.724 1.105 1.574 1.015 2.551-0.090 0.979-0.58 1.897-1.469 2.758l-13.847 14.281c-1.133 1.095-2.396 1.681-3.789 1.76-0.049 0.001-0.096 0.006-0.141 0.015l0.005-0.001c-0.040 0.009-0.087 0.014-0.135 0.015h-0.001z"></path>
</symbol>
<symbol id="burger-menu" viewBox="0 0 32 32">
<path d="M32 9c0 0.552-0.448 1-1 1v0h-30c-0.552 0-1-0.448-1-1s0.448-1 1-1v0h30c0.552 0 1 0.448 1 1v0zM32 25c0 0.552-0.448 1-1 1v0h-30c-0.552 0-1-0.448-1-1s0.448-1 1-1v0h30c0.552 0 1 0.448 1 1v0zM32 16.992c0 0.548-0.444 0.992-0.992 0.992v0h-30.016c-0.548 0-0.992-0.444-0.992-0.992s0.444-0.992 0.992-0.992v0h30.016c0.548 0 0.992 0.444 0.992 0.992z"></path>
</symbol>
<symbol id="close-btn" viewBox="0 0 32 32">
<path d="M18.41 16l12.462-12.462c0.253-0.296 0.408-0.684 0.408-1.108 0-0.944-0.765-1.71-1.71-1.71-0.424 0-0.811 0.154-1.11 0.409l0.002-0.002-12.462 12.462-12.462-12.48c-0.298-0.257-0.688-0.414-1.116-0.414-0.944 0-1.71 0.765-1.71 1.71 0 0.428 0.157 0.819 0.417 1.119l-0.002-0.002 12.462 12.478-12.48 12.462c-0.371 0.316-0.605 0.783-0.605 1.305 0 0.945 0.766 1.711 1.711 1.711 0.523 0 0.99-0.234 1.304-0.604l0.002-0.002 12.478-12.462 12.462 12.462c0.295 0.248 0.679 0.398 1.098 0.398 0.945 0 1.711-0.766 1.711-1.711 0-0.419-0.151-0.803-0.401-1.1l0.002 0.003-12.462-12.462z"></path>
</symbol>
<symbol id="drop-down-icon" viewBox="0 0 32 32">
<path d="M17.63 24.734c-0.394 0.464-0.978 0.757-1.63 0.757s-1.236-0.293-1.627-0.754l-0.003-0.003-12.962-15.36c-0.312-0.368-0.501-0.849-0.501-1.374 0-1.178 0.955-2.133 2.133-2.133h25.92c1.178 0 2.133 0.955 2.133 2.133 0 0.526-0.19 1.007-0.506 1.379l0.003-0.003-12.96 15.36z"></path>
</symbol>
<symbol id="loading-icon" viewBox="0 0 32 32">
<path stroke="#487996" style="stroke: var(--color3, #487996)" stroke-linejoin="round" stroke-linecap="round" stroke-miterlimit="4" stroke-width="0.7111" d="M16 5.333v3.048M23.619 8.381l-2.285 2.285M8.381 8.381l2.285 2.285M16 26.667v-3.048M23.619 23.619l-2.285-2.285M8.381 23.619l2.285-2.285M5.333 16h3.048M23.619 16h3.048"></path>
</symbol>
<symbol id="phone-icon" viewBox="0 0 32 32">
<path d="M25.639 20.347l-3.385-0.389c-0.093-0.012-0.201-0.018-0.31-0.018-0.734 0-1.397 0.298-1.878 0.779l-2.453 2.453c-3.802-1.962-6.824-4.984-8.734-8.674l-0.053-0.112 2.464-2.466c0.571-0.571 0.853-1.371 0.759-2.187l-0.386-3.36c-0.16-1.334-1.285-2.359-2.65-2.359-0.001 0-0.001 0-0.002 0h-2.308c-1.506 0-2.759 1.253-2.665 2.759 0.739 11.392 9.795 20.449 21.119 21.185l0.067 0.003c1.506 0.091 2.759-1.161 2.759-2.667v-2.309c0-0.004 0-0.008 0-0.012 0-1.355-1.021-2.472-2.335-2.625l-0.012-0.001z"></path>
</symbol>
</defs>
</svg>
